# xmcd CD database file
#
# Track frame offsets:
#	150
#	21597
#	41547
#	65097
#	85092
#	104370
#	118875
#	137507
#	156125
#
# Disc length: 2363 seconds
#
# Revision: 1
# Processed by: cddbd v1.5.2PL0 Copyright (c) Steve Scherf et al.
# Submitted via: CDex 1.81
#
DISCID=79093909
DTITLE=Meat Loaf - Bad Attitude
DYEAR=1984
DGENRE=Rock
TTITLE0=Bad Attitude
TTITLE1=Modern Girl
TTITLE2=Nowhere Fast
TTITLE3=Surf's Up
TTITLE4=Piece Of The Action
TTITLE5=Jumpin' The Gun
TTITLE6=Cheatin' In Your Dreams
TTITLE7=Don't Leave Your Mark On Me
TTITLE8=Sailor To A Siren
EXTD=YEAR: 1984
EXTT0=
EXTT1=
EXTT2=
EXTT3=
EXTT4=
EXTT5=
EXTT6=
EXTT7=
EXTT8=
PLAYORDER=
